<svg xmlns="http://www.w3.org/2000/svg" version="1.1" xmlns:xlink="http://www.w3.org/1999/xlink" xmlns:svgjs="http://svgjs.dev/svgjs" width="2000" height="2250" viewBox="0 0 2000 2250"><g transform="matrix(1,0,0,1,0,0)"><svg viewBox="0 0 320 360" data-background-color="#ffffff" preserveAspectRatio="xMidYMid meet" height="2250" width="2000" xmlns="http://www.w3.org/2000/svg" xmlns:xlink="http://www.w3.org/1999/xlink"><g id="tight-bounds" transform="matrix(1,0,0,1,0,0)"><svg viewBox="0 0 320 360" height="360" width="320"><g><svg></svg></g><g><svg viewBox="0 0 320 360" height="360" width="320"><g><path xmlns="http://www.w3.org/2000/svg" d="M297.491 100.645c-12.426-21.51-112.674-79.355-137.491-79.355-24.817 0-125.028 57.845-137.491 79.355-11.591 20.02-11.591 138.726 0 158.746 12.463 21.474 112.674 79.319 137.491 79.319 24.817 0 125.064-57.845 137.491-79.355 11.591-20.02 11.591-138.69 0-158.71zM309.481 93.705c-14.461-24.998-119.469-86.295-149.481-86.295-30.012 0-135.02 61.297-149.481 86.295-14.025 24.199-14.025 148.391 0 172.59 14.461 24.998 119.469 86.295 149.481 86.295 30.012 0 135.02-61.297 149.481-86.259 14.025-24.235 14.025-148.427 0-172.626zM300.906 261.353c-12.753 22.055-115.472 81.317-140.906 81.318-25.434 0-128.153-59.298-140.906-81.354-11.881-20.529-11.881-142.178 0-162.707 12.753-22.019 115.472-81.281 140.906-81.281 25.434 0 128.153 59.298 140.906 81.318 11.881 20.529 11.881 142.178 0 162.706z" fill="#a437db" fill-rule="nonzero" stroke="none" stroke-width="1" stroke-linecap="butt" stroke-linejoin="miter" stroke-miterlimit="10" stroke-dasharray="" stroke-dashoffset="0" font-family="none" font-weight="none" font-size="none" text-anchor="none" style="mix-blend-mode: normal" data-fill-palette-color="tertiary"></path></g><g transform="matrix(1,0,0,1,48,140.32430017921473)"><svg viewBox="0 0 224 79.35139964157057" height="79.35139964157057" width="224"><g><svg viewBox="0 0 392.08968952780015 138.89672164758835" height="79.35139964157057" width="224"><g transform="matrix(1,0,0,1,0,6.634501033302627)"><svg viewBox="0 0 224 125.6277195809831" height="125.6277195809831" width="224"><g><svg viewBox="0 0 224 125.6277195809831" height="125.6277195809831" width="224"><g><svg viewBox="0 0 224 125.6277195809831" height="125.6277195809831" width="224"><g transform="matrix(1,0,0,1,0,0)"><svg width="224" viewBox="-0.699999988079071 -34.20000076293945 62.04999923706055 34.79999923706055" height="125.6277195809831" data-palette-color="#ffffff"><path d="M35.8-1.2L35.8 0 21.1 0 21.1-1.2 25.15-1.65 20.55-13.15 9.3-13.15 5.3-2.5 9.75-1.2 9.75 0-0.7 0-0.7-1.2 3.1-2.5 15.2-33.4 18.7-33.4 31.95-1.65 35.8-1.2ZM10-15L19.8-15 14.9-27.15 10-15ZM38.1-1.7L38.1-1.7Q36-3.05 36-5.15L36-5.15Q36-8.05 40.6-8.75L40.6-8.75Q41.4-4.1 44-2.3L44-2.3Q46.3-0.7 48.87-0.7 51.45-0.7 53.32-2.27 55.2-3.85 55.2-7.45L55.2-7.45Q55.2-10.15 53.27-11.73 51.35-13.3 48.4-14.5 45.45-15.7 44.4-16.18 43.35-16.65 41.72-17.6 40.1-18.55 39.3-19.4L39.3-19.4Q37.3-21.7 37.3-24.7L37.3-24.7Q37.3-29.4 40.8-31.8 44.3-34.2 50.55-34.2L50.55-34.2Q54.1-34.2 58.8-33.4L58.8-33.4 58.8-26 57.15-26 55.15-31.9Q52.65-32.7 50.07-32.7 47.5-32.7 45.6-31.08 43.7-29.45 43.7-26.25L43.7-26.25Q43.7-22.6 47-20.8L47-20.8Q48.65-19.95 50.9-19.1 53.15-18.25 54.15-17.82 55.15-17.4 56.8-16.48 58.45-15.55 59.25-14.65 60.05-13.75 60.7-12.28 61.35-10.8 61.35-9.05L61.35-9.05Q61.35-4.8 57.75-2.1 54.15 0.6 47.92 0.6 41.7 0.6 38.1-1.7Z" opacity="1" transform="matrix(1,0,0,1,0,0)" fill="#ffffff" class="undefined-text-0" data-fill-palette-color="quaternary" id="text-0"></path></svg></g></svg></g></svg></g></svg></g><g transform="matrix(1,0,0,1,253.65768952780016,0)"><svg viewBox="0 0 138.432 138.89672164758835" height="138.89672164758835" width="138.432"><g><svg xmlns="http://www.w3.org/2000/svg" xmlns:xlink="http://www.w3.org/1999/xlink" version="1.1" x="0" y="0" viewBox="4.455309867858887 4.302000045776367 91.09031677246094 91.39611053466797" enable-background="new 0 0 100 100" xml:space="preserve" width="138.432" height="138.89672164758835" class="icon-icon-0" data-fill-palette-color="quaternary" id="icon-0"><path fill="#ffffff" d="M82.309 72.391c4.782 0 9.737 3.751 11.043 8.341l1.879 6.643c1.301 4.588-1.554 8.348-6.326 8.323l-77.745-0.05c-4.768 0-7.656-3.769-6.418-8.37l1.773-6.51c1.24-4.626 6.174-8.377 10.941-8.377H82.309z" data-fill-palette-color="quaternary"></path><path fill="#ffffff" d="M89.901 4.302H10.11c-2.013 0-3.641 1.625-3.641 3.641v55.565c0 2.017 1.628 3.643 3.641 3.643h79.791c2.006 0 3.643-1.626 3.643-3.643V7.943C93.544 5.928 91.907 4.302 89.901 4.302zM86.26 59.869H13.749V11.583H86.26V59.869z" data-fill-palette-color="quaternary"></path><g fill="#ffffff" data-fill-palette-color="quaternary"></g></svg></g></svg></g></svg></g></svg></g></svg></g><defs></defs></svg><rect width="320" height="360" fill="none" stroke="none" visibility="hidden"></rect></g></svg></g></svg>